<?xml version="1.0" encoding="utf-8"?>
<!-- Generator: Adobe Illustrator 26.0.3, SVG Export Plug-In . SVG Version: 6.00 Build 0)  -->
<svg version="1.1" id="Camada_1" xmlns="http://www.w3.org/2000/svg" xmlns:xlink="http://www.w3.org/1999/xlink" x="0px" y="0px"
	 viewBox="0 0 32 32" style="enable-background:new 0 0 32 32;" xml:space="preserve">
<style type="text/css">
	.st0{fill:#5A162E;}
</style>
<g>
	<g>
		<g>
			<polygon class="st0" points="16.6,16.37 17.06,16.37 17.06,16.49 17.35,16.49 17.35,15.94 17.06,15.94 17.06,16.08 16.6,16.08 
				16.6,15.51 16.74,15.51 16.74,15.23 16.2,15.23 16.2,15.51 16.34,15.51 16.34,16.08 15.87,16.08 15.87,15.94 15.59,15.94 
				15.59,16.49 15.87,16.49 15.87,16.37 16.34,16.37 16.34,17.56 13.24,19.59 19.62,19.58 16.6,17.56 			"/>
			<path class="st0" d="M13.24,9.67V9.06L10.92,2.6c0.1-0.08,0.17-0.19,0.17-0.33c0-0.19-0.13-0.34-0.31-0.39V0.91h0.37v0.1h0.23
				V0.57h-0.23v0.11h-0.37V0.23h0.11V0h-0.22h0h-0.22v0.23h0.11v0.45H10.2V0.57H9.97v0.44h0.23v-0.1h0.37v0.96
				c-0.18,0.05-0.31,0.21-0.31,0.39c0,0.14,0.07,0.25,0.17,0.33L8.12,9.06v0.61l2.56-1.4L13.24,9.67z"/>
			<path class="st0" d="M24.73,9.67V9.06L22.42,2.6c0.1-0.08,0.17-0.19,0.17-0.33c0-0.19-0.13-0.34-0.31-0.39V0.91h0.37v0.1h0.23
				V0.57h-0.23v0.11h-0.37V0.23h0.11V0h-0.22h0h-0.22v0.23h0.11v0.45H21.7V0.57h-0.23v0.44h0.23v-0.1h0.37v0.96
				c-0.18,0.05-0.31,0.21-0.31,0.39c0,0.14,0.07,0.25,0.17,0.33l-2.31,6.46v0.61l2.56-1.4L24.73,9.67z"/>
			<path class="st0" d="M22.17,8.65l-2.56,1.39l-0.38,0.21c0.19,0,0.35,0.22,0.38,0.51c0,0.04,0.01,0.08,0.01,0.13
				c0,0.04,0,0.08-0.01,0.13v8.57c0.8,0.8,1.41,2.26,1.41,3.79c0,1.43-0.62,2.5-1.41,3.24c-0.1,0.1-0.2,0.18-0.3,0.27
				c-0.27,0.21-0.55,0.4-0.83,0.55c-0.03,0.01-0.06,0.03-0.08,0.04c-0.05,0.02-0.1,0.05-0.15,0.07c-0.01,0-0.02,0.01-0.03,0.01
				c-0.81,0.41-1.18,0.83-1.35,1.67c-0.03,0.14-0.02,2.62-0.02,2.77l2.77,0h5.11V11.01c0-0.04-0.01-0.08-0.01-0.13
				c0-0.04,0-0.09,0.01-0.13c0.04-0.29,0.19-0.51,0.38-0.51l-0.38-0.21L22.17,8.65z M22.5,27.89h-0.66v-2.63
				c0-0.18,0.15-0.33,0.33-0.33c0.18,0,0.33,0.15,0.33,0.33V27.89z M22.5,23.42h-0.66v-2.63c0-0.18,0.15-0.33,0.33-0.33
				c0.18,0,0.33,0.15,0.33,0.33V23.42z M21.85,18.76c0-0.17,0.14-0.3,0.3-0.3c0.16,0,0.3,0.13,0.3,0.3s-0.14,0.3-0.3,0.3
				C21.99,19.06,21.85,18.92,21.85,18.76z M22.5,17.04h-0.66v-4.92c0-0.18,0.15-0.33,0.33-0.33c0.18,0,0.33,0.15,0.33,0.33V17.04z"
				/>
			<path class="st0" d="M14.64,27.56c-0.01-0.01-0.02-0.01-0.03-0.01c-0.05-0.03-0.1-0.05-0.15-0.07c-0.03-0.01-0.06-0.03-0.08-0.04
				c-0.28-0.15-0.56-0.33-0.83-0.55c-0.1-0.08-0.2-0.17-0.3-0.27c-0.78-0.74-1.41-1.81-1.41-3.24c0-1.53,0.6-2.99,1.41-3.79v-8.57
				c0-0.04-0.01-0.08-0.01-0.13c0-0.04,0-0.09,0.01-0.13c0.04-0.29,0.19-0.51,0.38-0.51l-0.38-0.21l-2.56-1.39l-2.56,1.39
				l-0.38,0.21c0.19,0,0.35,0.22,0.38,0.51c0,0.04,0.01,0.08,0.01,0.13c0,0.04,0,0.08-0.01,0.13V32h5.11l2.77,0
				c0-0.16,0.01-2.63-0.02-2.77C15.82,28.39,15.45,27.97,14.64,27.56z M11.01,27.89h-0.66v-2.63c0-0.18,0.15-0.33,0.33-0.33
				c0.18,0,0.33,0.15,0.33,0.33V27.89z M11.01,23.42h-0.66v-2.63c0-0.18,0.15-0.33,0.33-0.33c0.18,0,0.33,0.15,0.33,0.33V23.42z
				 M10.4,18.76c0-0.17,0.14-0.3,0.3-0.3c0.17,0,0.3,0.13,0.3,0.3s-0.14,0.3-0.3,0.3C10.53,19.06,10.4,18.92,10.4,18.76z
				 M11.01,17.04h-0.66v-4.92c0-0.18,0.15-0.33,0.33-0.33c0.18,0,0.33,0.15,0.33,0.33V17.04z"/>
		</g>
	</g>
</g>
</svg>
